M48
METRIC
T1C0.700
T2C0.800
T3C0.900
T4C1.000
T5C1.100
T6C2.700
T7C3.000
%
G90
G05
T1
X151.562Y-105.41
X151.562Y-107.91
X163.754Y-156.25
X163.754Y-158.75
T2
X139.37Y-90.17
X139.37Y-97.79
X139.37Y-103.378
X141.91Y-90.17
X141.91Y-97.79
X146.99Y-103.378
X150.546Y-119.634
X150.546Y-127.254
X150.546Y-129.54
X150.546Y-137.16
X153.848Y-119.634
X153.848Y-127.254
X153.848Y-129.54
X153.848Y-137.16
X154.61Y-99.568
X154.61Y-102.87
X154.61Y-105.41
X154.61Y-107.95
X154.61Y-110.49
X157.15Y-119.634
X157.15Y-127.254
X157.15Y-129.54
X157.15Y-137.16
X157.658Y-148.59
X160.452Y-119.634
X160.452Y-127.254
X162.23Y-99.568
X162.23Y-102.87
X162.23Y-105.41
X162.23Y-107.95
X162.23Y-110.49
X163.754Y-119.634
X163.754Y-127.254
X165.278Y-148.59
X167.31Y-110.49
X167.31Y-118.11
X168.58Y-123.19
X168.58Y-125.73
X168.58Y-128.27
X168.58Y-130.81
X168.58Y-133.35
X168.58Y-135.89
X168.58Y-138.43
X168.58Y-140.97
X168.58Y-143.51
X168.58Y-146.05
X168.58Y-148.59
X168.58Y-151.13
X168.58Y-153.67
X168.58Y-156.21
X169.85Y-110.49
X169.85Y-118.11
X172.39Y-110.49
X172.39Y-118.11
X174.93Y-91.186
X174.93Y-96.186
X174.93Y-110.49
X174.93Y-118.11
X177.47Y-110.49
X177.47Y-118.11
X180.01Y-110.49
X180.01Y-118.11
X182.042Y-93.218
X182.55Y-110.49
X182.55Y-118.11
X183.82Y-123.19
X183.82Y-125.73
X183.82Y-128.27
X183.82Y-130.81
X183.82Y-133.35
X183.82Y-135.89
X183.82Y-138.43
X183.82Y-140.97
X183.82Y-143.51
X183.82Y-146.05
X183.82Y-148.59
X183.82Y-151.13
X183.82Y-153.67
X183.82Y-156.21
X185.09Y-110.49
X185.09Y-118.11
X186.868Y-147.828
X186.868Y-151.13
X186.868Y-154.432
X187.122Y-93.218
X192.202Y-93.218
X194.488Y-147.828
X194.488Y-151.13
X194.488Y-154.432
X194.742Y-93.218
T3
X152.07Y-146.05
X152.07Y-148.59
X202.616Y-102.616
X202.616Y-106.426
X202.616Y-110.236
X205.156Y-102.616
X205.156Y-106.426
X205.156Y-110.236
T4
X145.0Y-116.25
X145.0Y-119.75
X145.0Y-123.25
X145.0Y-126.75
X145.0Y-130.25
X145.0Y-133.75
X145.0Y-137.25
X145.0Y-140.75
X168.326Y-91.44
X168.326Y-93.98
X202.0Y-116.25
X202.0Y-119.75
X202.0Y-123.25
X202.0Y-126.75
X202.0Y-130.25
X202.0Y-133.75
X202.0Y-137.25
X202.0Y-140.75
X207.94Y-95.25
X207.95Y-90.17
T5
X153.34Y-91.694
X155.88Y-91.694
X158.42Y-91.694
X160.96Y-91.694
X163.5Y-91.694
X194.996Y-103.482
X194.996Y-109.982
X199.496Y-103.482
X199.496Y-109.982
T6
X147.0Y-98.0
X147.0Y-151.0
X200.0Y-98.0
X200.0Y-151.0
T7
X150.546Y-140.716
X150.622Y-116.332
X156.642Y-116.332
X156.642Y-140.716
X190.424Y-128.524
X190.424Y-140.716
X190.5Y-116.332
X196.52Y-116.332
X196.52Y-128.524
X196.52Y-140.716
T0
M30
